# xmcd CD Database Entry
#
# Track frame offsets:
# 150
# 16112
# 29965
# 48435
# 61590
# 73592
# 83752
# 95060
# 106382
# 116945
# 129322
# 138020
# 148922
# 162072
# 177752
# 188730
# 200062
# 219960
# 233112
# 249060
#
# Disc length: 3458 seconds
#
# Revision: 1
# Processed by: cddbd v1.4b41PL1 Copyright (c) Steve Scherf et al.
# Submitted via: tcd 2.0b
#
DISCID=140d8014
DTITLE=John Lee Hooker - The Very Best Of CD2
DYEAR=1900
DGENRE=
TTITLE0=Dirty Ground Hog
TTITLE1=Hobo Blues (a.k.a. The Hobo) (Live)
TTITLE2=Tupolo (Live)
TTITLE3=I'm Going Upstairs
TTITLE4=I'm Mad Again
TTITLE5=Want Ad blues
TTITLE6=What Do You Say
TTITLE7=Boom Boom
TTITLE8=She's Mine
TTITLE9=Drug Store Woman
TTITLE10=You Know I Love You
TTITLE11=Send Me Your Pillow
TTITLE12=Don't Look Back
TTITLE13=One Way Ticket
TTITLE14=Bottle Up And Go
TTITLE15=This Is Hip
TTITLE16=Half A Stranger
TTITLE17=Birmingham Blues
TTITLE18=It Serves Me Right To Suffer
TTITLE19=Big Legs, Tight Skirt
EXTD=
EXTT0=
EXTT1=
EXTT2=
EXTT3=
EXTT4=
EXTT5=
EXTT6=
EXTT7=
EXTT8=
EXTT9=
EXTT10=
EXTT11=
EXTT12=
EXTT13=
EXTT14=
EXTT15=
EXTT16=
EXTT17=
EXTT18=
EXTT19=
PLAYORDER=
